<svg id="svg" version="1.1" xmlns="http://www.w3.org/2000/svg" xmlns:xlink="http://www.w3.org/1999/xlink" width="400" height="37.77777777777778" viewBox="0, 0, 400,37.77777777777778"><g id="svgg"><path id="path0" d="M12.000 0.416 C -2.959 4.982,-3.908 24.889,10.834 24.889 L 14.140 24.889 18.354 27.706 C 27.682 33.943,37.075 32.961,35.304 25.935 C 34.728 23.650,33.684 23.378,33.864 25.560 C 34.255 30.305,26.628 30.621,18.870 26.182 L 15.566 24.292 17.715 23.065 C 26.033 18.314,30.330 4.154,24.385 1.080 C 22.970 0.348,20.889 0.234,20.889 0.889 C 20.889 1.133,21.278 1.333,21.753 1.333 C 25.519 1.333,26.396 7.754,23.467 13.887 C 20.745 19.588,15.522 23.957,13.027 22.621 C 11.941 22.040,11.944 22.037,14.080 21.090 C 27.066 15.335,25.161 -3.602,12.000 0.416 M138.222 0.824 C 138.222 1.033,136.837 1.321,135.144 1.462 C 133.452 1.604,131.465 2.032,130.729 2.412 C 129.466 3.065,129.375 3.054,129.110 2.220 C 128.254 -0.479,116.982 1.172,113.672 4.482 C 110.662 7.492,112.096 9.554,118.926 12.034 C 125.984 14.596,126.891 15.931,123.526 18.811 C 119.470 22.283,110.399 24.059,107.889 21.873 C 105.570 19.853,109.135 15.554,113.788 14.760 C 116.187 14.350,116.077 13.514,113.648 13.696 C 108.352 14.095,103.482 18.935,104.656 22.633 C 105.765 26.126,115.294 25.538,122.000 21.563 C 129.540 17.093,128.832 13.059,119.897 9.584 C 113.419 7.065,113.257 6.625,117.938 4.265 C 123.004 1.711,129.305 2.221,127.113 5.007 C 126.047 6.363,126.006 6.667,126.889 6.667 C 127.256 6.667,127.556 6.982,127.556 7.368 C 127.556 8.276,129.946 10.667,130.855 10.667 C 131.904 10.667,131.699 9.986,130.483 9.432 C 126.746 7.729,131.037 3.556,136.524 3.556 C 138.614 3.556,138.617 3.418,136.410 8.740 C 130.005 24.192,129.870 25.778,134.961 25.778 C 139.799 25.778,144.136 22.089,153.587 9.936 C 157.468 4.946,159.980 2.109,160.868 1.716 C 162.664 0.921,162.580 0.444,160.645 0.444 C 157.330 0.444,155.633 2.110,150.254 10.643 C 146.162 17.135,144.124 19.550,140.631 22.042 C 133.710 26.981,132.718 24.610,137.121 13.656 C 138.219 10.924,139.361 7.512,139.658 6.073 L 140.198 3.456 142.544 3.732 C 143.925 3.894,144.889 3.834,144.889 3.585 C 144.889 3.013,143.078 1.778,142.234 1.775 C 141.861 1.774,140.983 1.474,140.283 1.108 C 138.841 0.356,138.222 0.271,138.222 0.824 M213.373 2.017 C 211.634 3.588,209.036 8.272,206.963 13.574 C 206.250 15.396,205.711 16.185,205.236 16.103 C 203.985 15.888,202.222 16.831,202.222 17.715 C 202.222 19.138,197.427 23.052,196.435 22.439 C 195.658 21.959,195.970 20.451,197.556 17.019 C 199.419 12.985,199.469 12.444,197.977 12.444 C 197.087 12.444,196.694 12.803,196.148 14.111 C 195.765 15.028,194.875 16.507,194.171 17.397 C 192.868 19.043,192.551 20.000,193.308 20.000 C 193.538 20.000,193.788 20.850,193.863 21.889 C 194.108 25.274,197.903 24.747,201.580 20.817 C 205.243 16.900,205.240 18.041,201.559 27.111 C 198.038 35.787,197.847 36.444,198.853 36.444 C 200.627 36.444,202.667 33.571,202.667 31.071 C 202.667 29.876,206.643 19.198,207.352 18.489 C 208.273 17.568,212.887 17.169,213.499 17.958 C 213.775 18.313,214.417 18.668,214.928 18.746 C 215.799 18.880,215.642 19.419,212.372 27.551 C 208.339 37.582,208.675 36.444,209.741 36.444 C 211.867 36.444,212.864 35.030,213.814 30.670 C 214.315 28.371,217.692 19.084,218.240 18.497 C 218.441 18.281,219.970 17.881,221.636 17.608 C 224.880 17.076,225.574 16.166,222.627 16.308 L 220.849 16.394 224.852 12.165 C 231.594 5.041,232.767 0.871,228.125 0.531 C 224.827 0.290,222.014 3.789,218.391 12.638 L 216.929 16.210 213.407 16.223 L 209.885 16.236 213.943 11.967 C 220.812 4.738,221.899 0.444,216.858 0.444 C 215.485 0.444,214.743 0.779,213.373 2.017 M271.409 2.345 C 269.143 4.611,266.272 9.355,264.095 14.428 C 262.433 18.303,261.588 19.444,258.933 21.394 C 255.393 23.994,254.883 21.114,257.966 15.938 C 259.738 12.963,259.752 12.000,258.025 12.000 C 257.215 12.000,256.713 12.393,256.183 13.444 C 254.005 17.759,248.790 23.207,247.564 22.449 C 246.404 21.733,248.329 16.989,250.615 14.931 C 251.941 13.738,251.789 13.333,250.017 13.333 C 248.636 13.333,248.294 13.603,246.700 15.951 C 243.486 20.683,237.675 24.241,235.757 22.650 C 234.001 21.192,236.704 16.778,240.889 14.269 C 242.890 13.069,243.111 13.092,243.111 14.499 C 243.111 15.501,243.207 15.584,243.800 15.092 C 245.134 13.986,244.429 12.239,242.587 12.086 C 240.064 11.876,237.680 13.390,232.822 18.290 C 226.821 24.341,225.199 24.029,228.192 17.400 C 230.105 13.163,230.171 12.444,228.644 12.444 C 227.754 12.444,227.361 12.803,226.815 14.111 C 226.432 15.028,225.542 16.507,224.837 17.397 C 223.490 19.099,223.162 20.246,224.127 19.876 C 224.543 19.716,224.651 20.068,224.522 21.168 C 224.148 24.373,227.445 25.120,230.461 22.513 L 232.181 21.026 233.105 22.402 C 234.811 24.942,239.988 24.506,243.465 21.530 C 245.330 19.934,245.333 19.933,245.333 21.045 C 245.333 24.215,249.206 24.535,251.920 21.590 L 253.732 19.625 253.866 21.701 C 254.070 24.861,257.099 24.970,260.456 21.937 C 262.080 20.469,262.222 20.419,262.222 21.311 C 262.222 24.536,265.595 25.068,269.038 22.385 C 270.178 21.497,271.141 20.547,271.178 20.274 C 271.215 20.001,271.365 20.678,271.511 21.778 C 271.907 24.750,275.547 24.848,278.261 21.959 L 279.276 20.878 279.839 22.217 C 280.393 23.535,281.078 23.800,283.333 23.566 C 284.621 23.432,286.888 21.589,288.908 19.034 C 291.082 16.283,291.085 16.412,288.945 21.043 C 287.487 24.199,286.893 24.994,285.057 26.243 C 276.475 32.079,273.714 37.785,279.476 37.775 C 282.528 37.769,284.524 35.732,287.777 29.305 C 289.349 26.200,290.167 25.141,292.216 23.561 C 294.758 21.599,298.222 17.972,298.222 17.271 C 298.222 16.477,297.465 16.968,294.703 19.556 C 290.945 23.077,290.864 22.980,293.201 17.768 C 296.287 10.886,294.473 9.464,289.953 15.222 C 286.129 20.093,283.952 22.222,282.796 22.222 C 280.879 22.222,281.994 18.894,284.880 16.009 C 286.375 14.514,286.626 14.042,286.198 13.526 C 285.000 12.083,282.757 13.628,280.456 17.480 C 279.338 19.352,275.279 22.795,274.495 22.537 C 272.673 21.939,276.164 13.333,278.229 13.333 C 280.075 13.333,282.222 12.825,282.222 12.389 C 282.222 12.175,281.322 12.000,280.222 12.000 C 279.122 12.000,278.222 11.845,278.222 11.654 C 278.222 11.251,279.476 9.383,280.337 8.502 C 281.223 7.596,280.813 6.462,279.546 6.314 C 278.594 6.202,278.193 6.602,276.761 9.092 C 275.618 11.079,274.819 12.000,274.237 12.000 C 273.044 12.000,272.609 12.918,273.494 13.565 C 274.948 14.629,267.688 22.877,265.566 22.573 C 262.889 22.190,264.087 19.528,269.249 14.385 C 277.797 5.869,280.056 0.827,275.457 0.532 C 273.495 0.406,273.230 0.525,271.409 2.345 M318.102 1.756 C 309.931 4.368,309.217 8.609,316.493 11.321 C 324.556 14.327,325.750 15.286,324.262 17.557 C 321.033 22.485,306.222 24.787,306.222 20.360 C 306.222 18.255,309.973 15.228,313.241 14.697 C 315.310 14.361,315.089 13.513,312.984 13.709 C 307.178 14.247,302.064 19.968,304.340 23.378 C 306.300 26.314,316.296 24.959,322.206 20.956 C 328.743 16.529,327.748 13.027,318.967 9.552 C 312.716 7.078,312.467 6.145,317.476 3.974 C 322.583 1.760,328.677 2.499,326.287 5.042 C 325.174 6.227,325.087 6.667,325.968 6.667 C 327.900 6.667,329.247 2.239,327.585 1.349 C 326.235 0.627,320.923 0.855,318.102 1.756 M19.639 2.682 C 24.380 7.423,16.298 20.889,8.711 20.889 C 6.553 20.889,5.836 21.444,6.680 22.461 C 7.058 22.916,7.707 23.026,8.893 22.837 C 9.815 22.689,10.942 22.784,11.396 23.049 C 12.061 23.435,11.745 23.531,9.778 23.540 C 1.350 23.581,0.185 13.954,7.609 5.624 C 11.570 1.181,16.847 -0.110,19.639 2.682 M172.085 2.212 C 166.033 3.837,162.637 6.388,162.008 9.782 C 161.479 12.634,163.428 15.111,166.200 15.111 C 167.539 15.111,167.310 14.412,165.761 13.771 C 159.374 11.125,169.070 3.708,180.505 2.493 C 191.771 1.295,195.774 10.003,187.693 18.130 C 183.272 22.576,175.208 24.731,172.632 22.156 C 170.924 20.448,179.641 7.111,182.466 7.111 C 183.510 7.111,183.016 6.094,181.647 5.426 C 179.727 4.490,174.222 8.708,174.222 11.114 C 174.222 13.116,170.186 20.456,169.335 20.001 C 168.319 19.457,167.840 18.092,168.233 16.855 C 168.487 16.054,168.363 15.952,167.284 16.078 C 166.062 16.220,166.041 16.274,165.913 19.556 C 165.675 25.641,167.391 27.807,169.993 24.707 L 171.363 23.076 173.117 23.809 C 184.232 28.453,199.060 14.769,192.864 5.585 C 190.197 1.633,180.253 0.019,172.085 2.212 M218.222 2.819 C 218.222 4.190,214.441 9.531,210.835 13.254 L 207.960 16.222 209.595 12.889 C 213.494 4.942,218.222 -0.577,218.222 2.819 M229.333 2.629 C 229.333 4.274,220.395 16.099,219.687 15.391 C 219.338 15.042,221.164 11.308,223.346 7.906 C 226.661 2.738,229.333 0.382,229.333 2.629 M276.444 2.137 C 276.444 3.476,270.426 11.737,267.315 14.667 L 265.664 16.222 268.006 11.624 C 270.923 5.899,276.444 -0.309,276.444 2.137 M360.139 9.111 C 358.453 12.042,356.163 13.396,356.761 11.109 C 358.126 5.887,347.755 9.253,345.172 14.870 C 343.976 17.473,342.424 19.414,340.012 21.324 L 338.295 22.684 340.480 17.742 C 342.816 12.457,342.852 12.000,340.928 12.000 C 339.929 12.000,339.269 12.543,337.551 14.778 C 333.047 20.634,329.982 23.187,329.123 21.797 C 328.654 21.038,330.220 18.045,332.081 16.144 C 333.964 14.220,334.143 12.889,332.518 12.889 C 329.710 12.889,325.760 19.699,327.109 22.217 C 328.552 24.914,331.509 24.095,335.298 19.950 C 336.726 18.389,337.818 17.325,337.725 17.587 C 336.060 22.271,334.401 24.763,331.600 26.790 C 323.265 32.825,321.187 37.778,326.989 37.778 C 329.669 37.778,331.984 35.379,335.034 29.442 C 336.320 26.938,337.543 24.889,337.752 24.889 C 338.433 24.889,344.964 18.527,345.364 17.475 L 345.753 16.451 347.765 17.667 C 350.719 19.451,350.080 21.783,346.069 23.857 C 344.408 24.716,343.478 23.972,344.936 22.951 C 346.356 21.955,345.697 21.567,344.041 22.423 C 340.113 24.454,344.052 26.401,348.241 24.498 C 353.142 22.272,353.449 18.778,348.909 16.897 C 347.131 16.161,346.959 15.360,348.251 13.824 C 350.328 11.357,356.283 9.366,355.127 11.526 C 354.377 12.927,354.537 13.434,355.556 12.889 C 356.265 12.509,356.444 12.551,356.444 13.095 C 356.444 13.471,356.644 13.778,356.889 13.778 C 357.665 13.778,357.380 14.444,355.556 16.889 C 353.645 19.450,353.437 20.000,354.383 20.000 C 354.781 20.000,354.918 20.363,354.785 21.061 C 354.162 24.323,357.585 25.068,361.047 22.424 C 362.526 21.295,363.111 21.043,363.111 21.535 C 363.111 25.563,371.938 24.482,375.716 19.992 C 376.361 19.226,376.889 18.664,376.889 18.744 C 376.889 18.824,376.480 19.964,375.981 21.277 C 375.481 22.591,375.172 23.765,375.294 23.886 C 376.063 24.656,378.007 23.142,380.816 19.587 C 385.139 14.114,386.862 13.188,384.665 17.520 C 382.416 21.953,383.720 22.599,387.430 18.889 C 390.409 15.909,390.756 15.858,389.957 18.515 C 388.071 24.781,392.118 26.071,397.269 20.846 C 401.030 17.032,400.771 15.510,396.988 19.197 C 391.880 24.176,390.289 22.866,393.553 16.367 C 394.924 13.638,394.933 13.778,393.378 13.778 C 392.647 13.778,391.110 14.437,389.829 15.299 L 387.568 16.820 388.229 15.543 C 390.641 10.879,387.603 10.699,382.812 15.222 C 380.934 16.994,379.554 18.044,379.745 17.556 C 381.413 13.276,381.509 12.887,381.013 12.391 C 380.367 11.745,379.178 12.186,378.802 13.212 C 377.050 17.998,370.041 23.720,366.898 22.931 C 364.835 22.413,365.162 19.032,367.238 19.429 C 369.747 19.908,375.111 16.363,375.111 14.224 C 375.111 9.747,369.765 11.512,363.408 18.089 C 357.003 24.714,355.378 24.154,358.959 16.556 C 360.406 13.486,360.549 13.333,361.988 13.333 C 365.069 13.333,366.363 12.298,363.631 12.019 L 361.262 11.778 362.631 9.893 C 364.338 7.542,364.435 6.222,362.900 6.222 C 362.013 6.222,361.479 6.781,360.139 9.111 M199.000 8.285 C 196.973 9.733,196.836 10.667,198.651 10.667 C 200.094 10.667,201.045 9.476,200.806 7.969 C 200.674 7.141,200.577 7.158,199.000 8.285 M229.684 8.298 C 227.823 9.717,227.755 10.381,229.449 10.582 C 230.747 10.737,231.710 9.480,231.472 7.942 C 231.340 7.085,231.252 7.103,229.684 8.298 M89.123 9.827 C 87.934 10.871,87.572 11.516,87.645 12.466 C 87.982 16.889,77.571 25.064,74.946 22.438 C 73.876 21.368,74.843 19.027,76.212 19.371 C 77.554 19.707,81.350 18.051,82.869 16.465 C 85.974 13.224,82.435 10.476,78.317 12.932 C 70.849 17.385,69.667 24.000,76.340 24.000 C 80.656 24.000,83.264 22.189,87.424 16.305 C 89.099 13.936,90.086 12.912,90.531 13.083 C 90.890 13.221,91.467 13.333,91.814 13.333 C 92.850 13.333,92.551 14.084,90.428 16.818 C 87.178 21.003,87.244 24.000,90.586 24.000 C 92.559 24.000,95.119 22.296,97.159 19.625 C 99.543 16.502,98.401 16.571,95.110 19.748 C 89.829 24.846,89.229 21.805,94.236 15.315 C 96.605 12.245,96.535 12.000,93.297 12.000 L 90.594 12.000 91.519 10.503 C 93.106 7.935,91.722 7.545,89.123 9.827 M72.207 11.026 C 70.433 12.324,66.607 16.224,64.274 19.111 C 62.913 20.794,62.916 20.751,64.454 16.414 C 65.775 12.689,65.533 12.000,62.903 12.000 C 61.795 12.000,60.889 12.200,60.889 12.444 C 60.889 12.689,61.167 12.889,61.508 12.889 C 63.719 12.889,61.848 16.850,57.957 20.407 C 54.037 23.989,52.704 22.318,55.357 17.148 C 56.232 15.443,56.353 14.883,55.906 14.599 C 54.819 13.910,54.176 14.230,52.092 16.503 C 46.044 23.097,41.697 24.695,45.311 18.995 C 47.612 15.368,53.532 12.283,55.330 13.775 C 55.889 14.239,56.000 14.183,56.000 13.435 C 56.000 9.850,48.434 12.271,43.453 17.450 C 36.558 24.617,34.107 24.036,38.228 16.211 C 40.114 12.630,40.147 12.000,38.450 12.000 C 37.635 12.000,37.019 12.626,35.716 14.778 C 33.957 17.683,30.624 21.532,29.212 22.287 C 26.146 23.928,27.430 18.360,30.861 15.137 C 32.372 13.718,32.298 13.333,30.513 13.333 C 27.230 13.333,23.921 21.099,26.425 22.929 C 28.224 24.245,30.432 23.736,32.343 21.565 C 33.702 20.022,34.053 19.797,33.906 20.566 C 33.192 24.299,38.117 25.339,40.860 22.035 C 41.366 21.425,41.576 21.499,42.672 22.673 C 44.653 24.793,46.323 24.415,49.789 21.064 L 51.801 19.119 51.631 20.901 C 51.229 25.109,54.725 25.298,58.896 21.293 L 61.715 18.586 61.063 20.737 C 59.886 24.624,61.661 26.652,63.276 23.266 C 65.824 17.922,73.676 10.734,76.257 11.382 C 77.233 11.627,77.396 11.539,77.263 10.837 C 76.989 9.396,74.295 9.497,72.207 11.026 M82.667 13.822 C 82.667 14.958,79.002 17.678,76.444 18.441 C 75.341 18.770,75.343 18.762,76.667 17.329 C 79.343 14.432,82.667 12.489,82.667 13.822 M373.333 14.218 C 373.333 15.152,369.630 17.867,367.556 18.453 C 366.554 18.736,366.620 18.581,368.222 16.886 C 371.145 13.794,373.333 12.651,373.333 14.218 M168.823 23.301 C 168.174 24.726,167.644 23.983,167.587 21.568 L 167.556 20.247 168.469 21.160 C 169.273 21.964,169.315 22.220,168.823 23.301 M285.099 29.222 C 283.249 33.687,279.821 37.332,278.610 36.122 C 277.850 35.361,278.545 34.005,280.795 31.860 C 282.942 29.813,285.464 27.595,285.673 27.570 C 285.737 27.562,285.479 28.306,285.099 29.222 M331.565 30.647 C 329.306 35.124,326.324 37.767,325.654 35.889 C 325.295 34.883,326.599 33.020,329.432 30.493 C 332.950 27.355,333.217 27.374,331.565 30.647 " stroke="none" fill="#ffffff" fill-rule="evenodd"></path></g></svg>