<svg id="svg" version="1.1" xmlns="http://www.w3.org/2000/svg" xmlns:xlink="http://www.w3.org/1999/xlink" width="400" height="400" viewBox="0, 0, 400,400"><g id="svgg"><path id="path0" d="M165.917 11.019 C 159.918 17.079,148.966 28.128,141.579 35.572 L 128.148 49.107 128.148 94.739 C 128.148 119.836,128.048 140.370,127.926 140.370 C 127.804 140.370,121.201 133.787,113.254 125.741 L 98.805 111.111 70.762 111.111 L 42.719 111.111 33.140 120.833 C 27.872 126.181,19.343 134.816,14.188 140.023 L 4.815 149.491 4.841 177.801 C 4.855 193.371,4.980 206.387,5.119 206.725 C 5.257 207.062,19.620 221.724,37.037 239.306 C 54.454 256.889,74.356 276.988,81.264 283.971 C 89.284 292.077,94.087 296.667,94.552 296.667 C 95.570 296.667,106.296 285.740,106.296 284.703 C 106.296 284.166,100.799 278.393,88.785 266.312 C 64.266 241.657,37.810 214.959,28.581 205.556 L 20.765 197.593 20.753 178.012 L 20.741 158.431 36.366 142.734 L 51.991 127.037 70.767 127.037 L 89.543 127.037 110.484 148.148 L 131.426 169.259 136.952 169.259 C 141.835 169.259,142.549 169.180,143.091 168.582 C 143.655 167.958,143.705 163.575,143.722 113.304 L 143.740 58.704 165.487 36.759 L 187.234 14.815 200.000 14.815 L 212.766 14.815 234.513 36.759 L 256.260 58.704 256.278 95.238 C 256.294 128.109,256.355 131.795,256.879 131.996 C 257.807 132.352,258.343 131.900,265.278 124.912 L 271.852 118.287 271.852 83.697 L 271.852 49.107 258.421 35.572 C 251.034 28.128,240.082 17.079,234.083 11.019 L 223.175 -0.000 200.000 -0.000 L 176.825 0.000 165.917 11.019 " stroke="none" fill="#fcfcfc" fill-rule="evenodd"></path><path id="path1" d="M299.133 112.778 C 298.216 113.694,297.326 114.444,297.154 114.444 C 296.983 114.444,296.678 114.819,296.477 115.278 C 296.276 115.736,295.746 116.271,295.301 116.467 C 294.855 116.663,294.409 117.133,294.310 117.513 C 294.210 117.893,293.771 118.297,293.332 118.411 C 292.894 118.526,292.385 119.017,292.200 119.502 C 292.016 119.987,291.468 120.535,290.983 120.719 C 290.498 120.903,290.011 121.398,289.901 121.819 C 289.791 122.240,289.269 122.748,288.740 122.949 C 288.205 123.153,287.777 123.607,287.775 123.972 C 287.774 124.334,287.274 124.914,286.664 125.261 C 286.055 125.608,285.556 126.146,285.556 126.457 C 285.556 126.768,285.139 127.128,284.630 127.255 C 284.120 127.383,283.704 127.699,283.704 127.957 C 283.704 128.454,271.567 140.741,271.077 140.741 C 270.919 140.741,270.693 141.049,270.573 141.425 C 270.454 141.802,269.943 142.298,269.437 142.528 C 268.932 142.759,268.519 143.196,268.519 143.501 C 268.519 143.806,268.040 144.303,267.454 144.605 C 266.869 144.908,266.302 145.494,266.194 145.907 C 266.086 146.320,265.588 146.814,265.086 147.004 C 264.585 147.195,264.085 147.695,263.975 148.115 C 263.865 148.536,263.365 149.036,262.864 149.226 C 262.363 149.417,261.859 149.931,261.745 150.369 C 261.630 150.808,261.226 151.247,260.846 151.347 C 260.467 151.446,259.996 151.892,259.800 152.338 C 259.605 152.783,259.080 153.308,258.634 153.504 C 258.188 153.700,257.742 154.170,257.643 154.550 C 257.544 154.930,257.127 155.328,256.716 155.435 C 255.283 155.810,255.007 167.758,256.400 169.151 C 257.774 170.525,269.630 170.272,269.630 168.869 C 269.630 168.424,269.972 168.076,270.556 167.930 C 271.065 167.802,271.481 167.495,271.481 167.247 C 271.481 166.999,275.440 162.805,280.278 157.926 C 285.116 153.048,293.897 144.186,299.792 138.232 L 310.510 127.407 329.298 127.407 L 348.086 127.407 363.673 143.231 L 379.259 159.054 379.256 178.138 L 379.252 197.222 369.154 207.407 C 363.600 213.009,342.567 234.259,322.415 254.630 C 278.279 299.242,258.728 318.993,232.773 345.185 C 221.973 356.083,210.184 368.000,206.574 371.667 L 200.010 378.333 194.325 372.593 C 191.198 369.435,173.008 351.060,153.901 331.759 C 124.950 302.513,118.997 296.667,118.166 296.667 C 117.205 296.667,107.605 305.655,106.639 307.459 C 105.675 309.261,102.852 306.229,147.037 350.845 C 157.120 361.027,172.220 376.252,180.592 384.679 L 195.813 400.000 200.000 400.000 L 204.187 400.000 219.408 384.689 C 227.780 376.269,244.880 359.011,257.407 346.339 C 269.935 333.668,285.852 317.586,292.778 310.601 C 299.704 303.617,315.704 287.454,328.333 274.682 C 340.963 261.911,357.630 245.076,365.370 237.271 C 373.111 229.467,382.903 219.567,387.130 215.273 L 394.815 207.465 394.815 178.017 L 394.815 148.568 380.556 134.238 C 372.713 126.356,366.296 119.678,366.296 119.398 C 366.296 119.118,366.064 118.889,365.780 118.889 C 365.497 118.889,363.547 117.139,361.447 115.000 L 357.628 111.111 329.214 111.111 L 300.799 111.111 299.133 112.778 " stroke="none" fill="#6c54cc" fill-rule="evenodd"></path></g></svg>