<svg id="svg" xmlns="http://www.w3.org/2000/svg" xmlns:xlink="http://www.w3.org/1999/xlink" width="400" height="325" viewBox="0, 0, 400,325"><g id="svgg"><path id="path0" d="M165.000 43.033 C 145.721 50.426,122.686 73.735,115.406 93.219 C 107.173 115.253,107.173 229.747,115.406 251.781 C 143.039 325.736,256.961 325.736,284.594 251.781 C 292.827 229.747,292.827 115.253,284.594 93.219 C 267.970 48.729,211.712 25.121,165.000 43.033 M229.398 66.418 C 244.287 73.838,255.998 86.190,263.486 102.373 C 271.510 119.714,271.510 225.286,263.486 242.627 C 237.118 299.615,162.882 299.615,136.514 242.627 C 128.149 224.548,128.512 119.700,137.003 101.250 C 153.711 64.947,195.119 49.336,229.398 66.418 M191.125 95.674 C 190.388 97.596,190.114 108.636,190.517 120.209 L 191.250 141.250 200.000 141.250 L 208.750 141.250 208.750 117.500 L 208.750 93.750 200.608 92.965 C 195.360 92.460,191.989 93.423,191.125 95.674 " stroke="none" fill="#ffffff" fill-rule="evenodd"></path></g></svg>